<svg width="48" height="48" viewBox="0 0 48 48" fill="none" xmlns="http://www.w3.org/2000/svg">
<path fill-rule="evenodd" clip-rule="evenodd" d="M15.3862 4.11654C14.4598 3.51495 13.2212 3.77824 12.6196 4.70461C12.018 5.63098 12.2813 6.86963 13.2076 7.47123L39.3574 24.4531L33.0134 25.5558C32.4913 25.6645 32.0343 25.9772 31.7438 26.4245C31.4534 26.8717 31.3536 27.4164 31.4666 27.9376C31.5753 28.4597 31.888 28.9167 32.3353 29.2071C32.7825 29.4976 33.3272 29.5974 33.8484 29.4844L44.9149 27.1321C45.1485 27.0799 45.3685 26.979 45.5604 26.8359C45.7336 26.713 45.8823 26.5588 45.9987 26.3812L46.064 26.2806C46.172 26.1528 46.2635 26.0119 46.3364 25.8613C46.3818 25.8118 46.4186 25.7551 46.4453 25.6935C46.4903 25.4592 46.4931 25.2187 46.4534 24.9834L44.1011 13.9169C43.8705 12.832 42.8041 12.1395 41.7193 12.3701C40.6344 12.6007 39.9419 13.6671 40.1725 14.7519L41.536 21.0984L15.3862 4.11654ZM8.53582 23.5151L34.6856 40.497C35.6119 41.0986 35.8752 42.3372 35.2736 43.2636C34.672 44.19 33.4334 44.4532 32.507 43.8516L6.35726 26.8698L7.8464 33.0594C7.95941 33.5806 7.85961 34.1253 7.56917 34.5725C7.27873 35.0198 6.8217 35.3325 6.29963 35.4412C5.77846 35.5542 5.23375 35.4544 4.78651 35.164C4.33926 34.8736 4.02654 34.4165 3.9178 33.8945L1.56555 22.828C1.51821 22.5933 1.52097 22.3513 1.57364 22.1178C1.6154 21.9096 1.6958 21.7111 1.81067 21.5325L1.87603 21.4318C1.9787 21.2955 2.0984 21.1729 2.23221 21.067C2.25888 21.0054 2.29571 20.9487 2.34114 20.8992C2.53691 20.7628 2.75551 20.6624 2.98662 20.603L14.0531 18.2507C15.138 18.0202 16.2043 18.7127 16.4349 19.7975C16.6655 20.8824 15.973 21.9488 14.8881 22.1793L8.53582 23.5151Z" fill="white" stroke="white" stroke-width="2"/>
</svg>
